<?xml version="1.0" encoding="utf-8"?>
<svg xmlns="http://www.w3.org/2000/svg" xmlns:xlink="http://www.w3.org/1999/xlink" xml:space="preserve" width="630" height="735" viewBox="0 0 630 735"><rect width="583.275" height="583.275" fill="#ffffff" x="26.25" y="26.25"/><g transform="scale(26.25)" fill="#000000"><path d="M22.7,0H1.3C0.6,0,0,0.6,0,1.3v25.3C0,27.4,0.6,28,1.3,28h21.3c0.7,0,1.3-0.6,1.3-1.3V1.3C24,0.6,23.4,0,22.7,0 z M23,22c0,0.6-0.5,1-1,1H2c-0.6,0-1-0.5-1-1V2c0-0.6,0.5-1,1-1h20c0.6,0,1,0.5,1,1V22z"/></g><g fill="#000000">
<g transform="translate(279,63) scale(4.12)"><rect width="6" height="6"/></g>
<g transform="translate(303,63) scale(4.12)"><rect width="6" height="6"/></g>
<g transform="translate(327,63) scale(4.12)"><rect width="6" height="6"/></g>
<g transform="translate(351,63) scale(4.12)"><rect width="6" height="6"/></g>
<g transform="translate(303,87) scale(4.12)"><rect width="6" height="6"/></g>
<g transform="translate(351,87) scale(4.12)"><rect width="6" height="6"/></g>
<g transform="translate(255,111) scale(4.12)"><rect width="6" height="6"/></g>
<g transform="translate(279,111) scale(4.12)"><rect width="6" height="6"/></g>
<g transform="translate(327,111) scale(4.12)"><rect width="6" height="6"/></g>
<g transform="translate(255,135) scale(4.12)"><rect width="6" height="6"/></g>
<g transform="translate(279,135) scale(4.12)"><rect width="6" height="6"/></g>
<g transform="translate(303,135) scale(4.12)"><rect width="6" height="6"/></g>
<g transform="translate(327,135) scale(4.12)"><rect width="6" height="6"/></g>
<g transform="translate(255,159) scale(4.12)"><rect width="6" height="6"/></g>
<g transform="translate(303,159) scale(4.12)"><rect width="6" height="6"/></g>
<g transform="translate(327,159) scale(4.12)"><rect width="6" height="6"/></g>
<g transform="translate(351,159) scale(4.12)"><rect width="6" height="6"/></g>
<g transform="translate(255,183) scale(4.12)"><rect width="6" height="6"/></g>
<g transform="translate(279,183) scale(4.12)"><rect width="6" height="6"/></g>
<g transform="translate(303,183) scale(4.12)"><rect width="6" height="6"/></g>
<g transform="translate(351,183) scale(4.12)"><rect width="6" height="6"/></g>
<g transform="translate(255,207) scale(4.12)"><rect width="6" height="6"/></g>
<g transform="translate(303,207) scale(4.12)"><rect width="6" height="6"/></g>
<g transform="translate(351,207) scale(4.12)"><rect width="6" height="6"/></g>
<g transform="translate(255,231) scale(4.12)"><rect width="6" height="6"/></g>
<g transform="translate(279,231) scale(4.12)"><rect width="6" height="6"/></g>
<g transform="translate(327,231) scale(4.12)"><rect width="6" height="6"/></g>
<g transform="translate(351,231) scale(4.12)"><rect width="6" height="6"/></g>
<g transform="translate(63,255) scale(4.12)"><rect width="6" height="6"/></g>
<g transform="translate(111,255) scale(4.12)"><rect width="6" height="6"/></g>
<g transform="translate(135,255) scale(4.12)"><rect width="6" height="6"/></g>
<g transform="translate(159,255) scale(4.12)"><rect width="6" height="6"/></g>
<g transform="translate(183,255) scale(4.12)"><rect width="6" height="6"/></g>
<g transform="translate(207,255) scale(4.12)"><rect width="6" height="6"/></g>
<g transform="translate(303,255) scale(4.12)"><rect width="6" height="6"/></g>
<g transform="translate(351,255) scale(4.12)"><rect width="6" height="6"/></g>
<g transform="translate(399,255) scale(4.12)"><rect width="6" height="6"/></g>
<g transform="translate(423,255) scale(4.12)"><rect width="6" height="6"/></g>
<g transform="translate(447,255) scale(4.12)"><rect width="6" height="6"/></g>
<g transform="translate(471,255) scale(4.12)"><rect width="6" height="6"/></g>
<g transform="translate(495,255) scale(4.12)"><rect width="6" height="6"/></g>
<g transform="translate(63,279) scale(4.12)"><rect width="6" height="6"/></g>
<g transform="translate(111,279) scale(4.12)"><rect width="6" height="6"/></g>
<g transform="translate(255,279) scale(4.12)"><rect width="6" height="6"/></g>
<g transform="translate(303,279) scale(4.12)"><rect width="6" height="6"/></g>
<g transform="translate(351,279) scale(4.12)"><rect width="6" height="6"/></g>
<g transform="translate(423,279) scale(4.12)"><rect width="6" height="6"/></g>
<g transform="translate(471,279) scale(4.12)"><rect width="6" height="6"/></g>
<g transform="translate(495,279) scale(4.12)"><rect width="6" height="6"/></g>
<g transform="translate(519,279) scale(4.12)"><rect width="6" height="6"/></g>
<g transform="translate(543,279) scale(4.12)"><rect width="6" height="6"/></g>
<g transform="translate(87,303) scale(4.12)"><rect width="6" height="6"/></g>
<g transform="translate(111,303) scale(4.12)"><rect width="6" height="6"/></g>
<g transform="translate(183,303) scale(4.12)"><rect width="6" height="6"/></g>
<g transform="translate(207,303) scale(4.12)"><rect width="6" height="6"/></g>
<g transform="translate(231,303) scale(4.12)"><rect width="6" height="6"/></g>
<g transform="translate(255,303) scale(4.12)"><rect width="6" height="6"/></g>
<g transform="translate(303,303) scale(4.12)"><rect width="6" height="6"/></g>
<g transform="translate(327,303) scale(4.12)"><rect width="6" height="6"/></g>
<g transform="translate(375,303) scale(4.12)"><rect width="6" height="6"/></g>
<g transform="translate(447,303) scale(4.12)"><rect width="6" height="6"/></g>
<g transform="translate(471,303) scale(4.12)"><rect width="6" height="6"/></g>
<g transform="translate(495,303) scale(4.12)"><rect width="6" height="6"/></g>
<g transform="translate(519,303) scale(4.12)"><rect width="6" height="6"/></g>
<g transform="translate(63,327) scale(4.12)"><rect width="6" height="6"/></g>
<g transform="translate(87,327) scale(4.12)"><rect width="6" height="6"/></g>
<g transform="translate(135,327) scale(4.12)"><rect width="6" height="6"/></g>
<g transform="translate(159,327) scale(4.12)"><rect width="6" height="6"/></g>
<g transform="translate(279,327) scale(4.12)"><rect width="6" height="6"/></g>
<g transform="translate(303,327) scale(4.12)"><rect width="6" height="6"/></g>
<g transform="translate(423,327) scale(4.12)"><rect width="6" height="6"/></g>
<g transform="translate(447,327) scale(4.12)"><rect width="6" height="6"/></g>
<g transform="translate(471,327) scale(4.12)"><rect width="6" height="6"/></g>
<g transform="translate(495,327) scale(4.12)"><rect width="6" height="6"/></g>
<g transform="translate(519,327) scale(4.12)"><rect width="6" height="6"/></g>
<g transform="translate(543,327) scale(4.12)"><rect width="6" height="6"/></g>
<g transform="translate(111,351) scale(4.12)"><rect width="6" height="6"/></g>
<g transform="translate(183,351) scale(4.12)"><rect width="6" height="6"/></g>
<g transform="translate(207,351) scale(4.12)"><rect width="6" height="6"/></g>
<g transform="translate(279,351) scale(4.12)"><rect width="6" height="6"/></g>
<g transform="translate(303,351) scale(4.12)"><rect width="6" height="6"/></g>
<g transform="translate(327,351) scale(4.12)"><rect width="6" height="6"/></g>
<g transform="translate(375,351) scale(4.12)"><rect width="6" height="6"/></g>
<g transform="translate(447,351) scale(4.12)"><rect width="6" height="6"/></g>
<g transform="translate(471,351) scale(4.12)"><rect width="6" height="6"/></g>
<g transform="translate(519,351) scale(4.12)"><rect width="6" height="6"/></g>
<g transform="translate(543,351) scale(4.12)"><rect width="6" height="6"/></g>
<g transform="translate(255,375) scale(4.12)"><rect width="6" height="6"/></g>
<g transform="translate(303,375) scale(4.12)"><rect width="6" height="6"/></g>
<g transform="translate(327,375) scale(4.12)"><rect width="6" height="6"/></g>
<g transform="translate(351,375) scale(4.12)"><rect width="6" height="6"/></g>
<g transform="translate(375,375) scale(4.12)"><rect width="6" height="6"/></g>
<g transform="translate(399,375) scale(4.12)"><rect width="6" height="6"/></g>
<g transform="translate(423,375) scale(4.12)"><rect width="6" height="6"/></g>
<g transform="translate(471,375) scale(4.12)"><rect width="6" height="6"/></g>
<g transform="translate(519,375) scale(4.12)"><rect width="6" height="6"/></g>
<g transform="translate(279,399) scale(4.12)"><rect width="6" height="6"/></g>
<g transform="translate(303,399) scale(4.12)"><rect width="6" height="6"/></g>
<g transform="translate(351,399) scale(4.12)"><rect width="6" height="6"/></g>
<g transform="translate(399,399) scale(4.12)"><rect width="6" height="6"/></g>
<g transform="translate(423,399) scale(4.12)"><rect width="6" height="6"/></g>
<g transform="translate(519,399) scale(4.12)"><rect width="6" height="6"/></g>
<g transform="translate(255,423) scale(4.12)"><rect width="6" height="6"/></g>
<g transform="translate(327,423) scale(4.12)"><rect width="6" height="6"/></g>
<g transform="translate(351,423) scale(4.12)"><rect width="6" height="6"/></g>
<g transform="translate(375,423) scale(4.12)"><rect width="6" height="6"/></g>
<g transform="translate(399,423) scale(4.12)"><rect width="6" height="6"/></g>
<g transform="translate(423,423) scale(4.12)"><rect width="6" height="6"/></g>
<g transform="translate(495,423) scale(4.12)"><rect width="6" height="6"/></g>
<g transform="translate(519,423) scale(4.12)"><rect width="6" height="6"/></g>
<g transform="translate(543,423) scale(4.12)"><rect width="6" height="6"/></g>
<g transform="translate(255,447) scale(4.12)"><rect width="6" height="6"/></g>
<g transform="translate(279,447) scale(4.12)"><rect width="6" height="6"/></g>
<g transform="translate(303,447) scale(4.12)"><rect width="6" height="6"/></g>
<g transform="translate(351,447) scale(4.12)"><rect width="6" height="6"/></g>
<g transform="translate(447,447) scale(4.12)"><rect width="6" height="6"/></g>
<g transform="translate(471,447) scale(4.12)"><rect width="6" height="6"/></g>
<g transform="translate(255,471) scale(4.12)"><rect width="6" height="6"/></g>
<g transform="translate(279,471) scale(4.12)"><rect width="6" height="6"/></g>
<g transform="translate(303,471) scale(4.12)"><rect width="6" height="6"/></g>
<g transform="translate(351,471) scale(4.12)"><rect width="6" height="6"/></g>
<g transform="translate(423,471) scale(4.12)"><rect width="6" height="6"/></g>
<g transform="translate(471,471) scale(4.12)"><rect width="6" height="6"/></g>
<g transform="translate(495,471) scale(4.12)"><rect width="6" height="6"/></g>
<g transform="translate(255,495) scale(4.12)"><rect width="6" height="6"/></g>
<g transform="translate(303,495) scale(4.12)"><rect width="6" height="6"/></g>
<g transform="translate(327,495) scale(4.12)"><rect width="6" height="6"/></g>
<g transform="translate(375,495) scale(4.12)"><rect width="6" height="6"/></g>
<g transform="translate(447,495) scale(4.12)"><rect width="6" height="6"/></g>
<g transform="translate(471,495) scale(4.12)"><rect width="6" height="6"/></g>
<g transform="translate(279,519) scale(4.12)"><rect width="6" height="6"/></g>
<g transform="translate(423,519) scale(4.12)"><rect width="6" height="6"/></g>
<g transform="translate(519,519) scale(4.12)"><rect width="6" height="6"/></g>
<g transform="translate(255,543) scale(4.12)"><rect width="6" height="6"/></g>
<g transform="translate(303,543) scale(4.12)"><rect width="6" height="6"/></g>
<g transform="translate(327,543) scale(4.12)"><rect width="6" height="6"/></g>
<g transform="translate(375,543) scale(4.12)"><rect width="6" height="6"/></g>
<g transform="translate(423,543) scale(4.12)"><rect width="6" height="6"/></g>
<g transform="translate(471,543) scale(4.12)"><rect width="6" height="6"/></g>
<g transform="translate(63,63)"><g transform="scale(12)"><path d="M0,0v14h14V0H0z M12,12H2V2h10V12z"/></g></g>
<g transform="translate(399,63)"><g transform="scale(12)"><path d="M0,0v14h14V0H0z M12,12H2V2h10V12z"/></g></g>
<g transform="translate(63,399)"><g transform="scale(12)"><path d="M0,0v14h14V0H0z M12,12H2V2h10V12z"/></g></g>
<g transform="translate(111,111)"><g transform="scale(12)"><rect width="6" height="6"/></g></g>
<g transform="translate(447,111)"><g transform="scale(12)"><rect width="6" height="6"/></g></g>
<g transform="translate(111,447)"><g transform="scale(12)"><rect width="6" height="6"/></g></g>
</g><g transform="translate(115.5384771987,595) scale(0.87557003257329)"><path fill="#FFFFFF" d="M4.4921875,96.923828125l8.935546875-0.78125q0.634765625,5.37109375,2.9541015625,8.8134765625t7.2021484375,5.56640625t10.986328125,2.1240234375q5.419921875,0,9.5703125-1.611328125t6.1767578125-4.4189453125t2.0263671875-6.1279296875q0-3.369140625-1.953125-5.8837890625t-6.4453125-4.2236328125q-2.880859375-1.123046875-12.744140625-3.4912109375t-13.818359375-4.4677734375q-5.126953125-2.685546875-7.6416015625-6.6650390625t-2.5146484375-8.9111328125q0-5.419921875,3.076171875-10.1318359375t8.984375-7.1533203125t13.134765625-2.44140625q7.958984375,0,14.0380859375,2.5634765625t9.3505859375,7.5439453125t3.515625,11.279296875l-9.08203125,0.68359375q-0.732421875-6.787109375-4.9560546875-10.25390625t-12.4755859375-3.466796875q-8.59375,0-12.5244140625,3.1494140625t-3.9306640625,7.5927734375q0,3.857421875,2.783203125,6.34765625q2.734375,2.490234375,14.2822265625,5.1025390625t15.8447265625,4.5654296875q6.25,2.880859375,9.228515625,7.2998046875t2.978515625,10.1806640625q0,5.712890625-3.271484375,10.7666015625t-9.3994140625,7.861328125t-13.7939453125,2.8076171875q-9.716796875,0-16.2841796875-2.83203125t-10.302734375-8.5205078125t-3.9306640625-12.8662109375z M125.48828125,94.82421875l9.47265625,2.392578125q-2.978515625,11.669921875-10.7177734375,17.7978515625t-18.9208984375,6.1279296875q-11.572265625,0-18.8232421875-4.7119140625t-11.03515625-13.6474609375t-3.7841796875-19.189453125q0-11.181640625,4.2724609375-19.5068359375t12.158203125-12.646484375t17.3583984375-4.3212890625q10.7421875,0,18.06640625,5.46875t10.205078125,15.380859375l-9.326171875,2.197265625q-2.490234375-7.8125-7.2265625-11.376953125t-11.9140625-3.564453125q-8.251953125,0-13.7939453125,3.955078125t-7.7880859375,10.6201171875t-2.24609375,13.7451171875q0,9.130859375,2.6611328125,15.9423828125t8.2763671875,10.1806640625t12.158203125,3.369140625q7.958984375,0,13.4765625-4.58984375t7.470703125-13.623046875z M138.76953125,119.921875l27.490234375-71.58203125l10.205078125,0l29.296875,71.58203125l-10.791015625,0l-8.349609375-21.6796875l-29.931640625,0l-7.861328125,21.6796875l-10.05859375,0z M159.423828125,90.52734375l24.267578125,0l-7.470703125-19.82421875q-3.41796875-9.033203125-5.078125-14.84375q-1.3671875,6.884765625-3.857421875,13.671875z M213.232421875,119.921875l0-71.58203125l9.716796875,0l37.59765625,56.201171875l0-56.201171875l9.08203125,0l0,71.58203125l-9.716796875,0l-37.59765625-56.25l0,56.25l-9.08203125,0z  M313.037109375,119.921875l0-71.58203125l14.2578125,0l16.943359375,50.68359375q2.34375,7.080078125,3.41796875,10.595703125q1.220703125-3.90625,3.80859375-11.474609375l17.138671875-49.8046875l12.744140625,0l0,71.58203125l-9.130859375,0l0-59.912109375l-20.80078125,59.912109375l-8.544921875,0l-20.703125-60.9375l0,60.9375l-9.130859375,0z M396.826171875,119.921875l0-71.58203125l51.7578125,0l0,8.447265625l-42.28515625,0l0,21.923828125l39.599609375,0l0,8.3984375l-39.599609375,0l0,24.365234375l43.9453125,0l0,8.447265625l-53.41796875,0z"/></g></svg>
